<svg width="384" height="256" viewBox="0 0 384 256" fill="none" xmlns="http://www.w3.org/2000/svg">
<path fill-rule="evenodd" clip-rule="evenodd" d="M159.872 139.115C143.429 162.535 116.616 176.485 88.0005 176.507C39.3989 176.507 0.000488281 137.108 0.000488281 88.5073C0.000488281 39.9067 39.3999 0.507812 88.0005 0.507812C136.601 0.507812 176 39.9067 176 88.5073V136.507C175.947 183.262 156.818 225.548 125.978 256H101.775C136.474 228.698 159.022 186.605 159.872 139.115Z" fill="white" fill-opacity="0.1"/>
<path fill-rule="evenodd" clip-rule="evenodd" d="M333.978 256C364.818 225.548 383.946 183.263 383.999 136.508V88.5077C384.138 39.7655 344.738 0.139037 295.996 0.000364927C247.254 -0.138307 207.627 39.2621 207.489 88.0038C207.35 136.746 246.75 176.372 295.492 176.511C324.273 176.593 351.286 162.637 367.871 139.116C367.022 186.606 344.474 228.698 309.776 256H333.978Z" fill="white" fill-opacity="0.1"/>
</svg>
