<svg width="320" height="320" viewBox="0 0 320 320" fill="none" xmlns="http://www.w3.org/2000/svg">
<path fill-rule="evenodd" clip-rule="evenodd" d="M1.99277 2.00611C1.32898 2.00204 0.664734 2 0 2V0C0.668823 0 1.33719 0.00205188 2.00504 0.0061497L1.9989 1.00613L1.99277 2.00611ZM318 320H320C320 319.331 319.998 318.663 319.994 317.995L318.994 318.001L317.994 318.007C317.998 318.671 318 319.335 318 320ZM319.847 310.005L318.847 310.035L317.848 310.066C317.807 308.747 317.759 307.429 317.702 306.114L318.701 306.071L319.7 306.028C319.757 307.351 319.806 308.677 319.847 310.005ZM319.259 298.054L318.262 298.121L317.264 298.189C317.174 296.868 317.077 295.549 316.971 294.233L317.968 294.153L318.965 294.073C319.071 295.398 319.169 296.725 319.259 298.054ZM318.23 286.143L317.236 286.247L316.241 286.352C316.102 285.032 315.956 283.715 315.801 282.4L316.794 282.283L317.787 282.166C317.943 283.489 318.09 284.815 318.23 286.143ZM316.755 274.259L315.766 274.4L314.776 274.542C314.589 273.235 314.393 271.93 314.191 270.628L315.179 270.474L316.167 270.32C316.371 271.63 316.567 272.943 316.755 274.259ZM314.837 262.44L313.853 262.618L312.869 262.797C312.633 261.497 312.389 260.2 312.137 258.906L313.119 258.715L314.101 258.524C314.354 259.827 314.6 261.132 314.837 262.44ZM312.478 250.709L311.501 250.925L310.525 251.14C310.24 249.848 309.947 248.559 309.646 247.273L310.619 247.045L311.593 246.817C311.896 248.111 312.191 249.409 312.478 250.709ZM309.681 239.081L308.713 239.333L307.745 239.585C307.411 238.303 307.069 237.024 306.719 235.748L307.684 235.484L308.648 235.219C309 236.503 309.344 237.791 309.681 239.081ZM306.444 227.554L305.486 227.842L304.529 228.131C304.148 226.866 303.759 225.604 303.362 224.346L304.316 224.045L305.27 223.745C305.669 225.011 306.06 226.281 306.444 227.554ZM302.775 216.158L301.829 216.482L300.883 216.807C300.454 215.557 300.018 214.311 299.575 213.069L300.517 212.732L301.458 212.396C301.905 213.646 302.344 214.9 302.775 216.158ZM298.681 204.913C298.202 203.671 297.716 202.433 297.222 201.199L296.293 201.571L295.365 201.942C295.856 203.168 296.339 204.399 296.815 205.633L297.748 205.273L298.681 204.913ZM294.167 193.833L293.248 194.228L292.33 194.622C291.807 193.406 291.278 192.194 290.741 190.986L291.654 190.58L292.568 190.173C293.109 191.389 293.642 192.609 294.167 193.833ZM289.238 182.926L288.335 183.355L287.432 183.784C286.865 182.59 286.29 181.399 285.709 180.213L286.607 179.773L287.505 179.333C288.09 180.526 288.668 181.724 289.238 182.926ZM283.902 172.21L283.015 172.673L282.129 173.135C281.518 171.964 280.9 170.797 280.275 169.634L281.155 169.161L282.036 168.687C282.665 169.857 283.287 171.031 283.902 172.21ZM278.169 161.704L277.3 162.2L276.431 162.695C275.776 161.547 275.115 160.403 274.446 159.264L275.308 158.758L276.171 158.251C276.844 159.398 277.51 160.549 278.169 161.704ZM272.047 151.422L271.197 151.95L270.348 152.477C269.65 151.354 268.946 150.235 268.235 149.121L269.077 148.583L269.92 148.045C270.636 149.166 271.345 150.292 272.047 151.422ZM265.545 141.376L264.716 141.935L263.887 142.494C263.148 141.397 262.402 140.305 261.649 139.218L262.471 138.649L263.294 138.08C264.051 139.173 264.801 140.272 265.545 141.376ZM258.671 131.576L257.863 132.165L257.055 132.755C256.276 131.687 255.491 130.625 254.699 129.568L255.5 128.968L256.3 128.369C257.097 129.433 257.887 130.502 258.671 131.576ZM251.437 122.04L250.652 122.659L249.866 123.279C249.048 122.241 248.224 121.208 247.393 120.181L248.17 119.552L248.948 118.923C249.784 119.957 250.614 120.996 251.437 122.04ZM243.854 112.782L243.092 113.429L242.33 114.077C241.474 113.07 240.611 112.069 239.742 111.073L240.496 110.416L241.25 109.758C242.124 110.761 242.992 111.768 243.854 112.782ZM235.931 103.811L235.194 104.487L234.457 105.163C233.564 104.188 232.665 103.22 231.759 102.257L232.488 101.572L233.217 100.887C234.128 101.856 235.032 102.831 235.931 103.811ZM227.68 95.1407L226.969 95.8435L226.257 96.5462C225.329 95.6059 224.394 94.6713 223.454 93.7426L224.157 93.0312L224.859 92.3197C225.805 93.2542 226.746 94.1946 227.68 95.1407ZM219.113 86.7833C218.144 85.8725 217.169 84.9676 216.189 84.0688L215.513 84.8059L214.837 85.543C215.812 86.4362 216.78 87.3355 217.743 88.2407L218.428 87.512L219.113 86.7833ZM210.242 78.7503L209.584 79.5039L208.927 80.2575C207.931 79.3888 206.93 78.5262 205.923 77.6698L206.571 76.9081L207.219 76.1464C208.232 77.0082 209.239 77.8762 210.242 78.7503ZM201.077 71.0523L200.448 71.8298L199.819 72.6074C198.792 71.7765 197.759 70.952 196.721 70.1337L197.341 69.3484L197.96 68.5631C199.004 69.3865 200.043 70.2162 201.077 71.0523ZM191.631 63.6998L191.032 64.5003L190.432 65.3007C189.375 64.509 188.313 63.7237 187.245 62.9449L187.835 62.1371L188.424 61.3293C189.498 62.113 190.567 62.9032 191.631 63.6998ZM181.92 56.7063L181.351 57.5285L180.782 58.3507C179.695 57.5983 178.603 56.8525 177.507 56.1133L178.065 55.284L178.624 54.4548C179.728 55.1986 180.827 55.9492 181.92 56.7063ZM171.955 50.0797C170.834 49.364 169.709 48.6551 168.578 47.9531L168.05 48.8026L167.523 49.6521C168.646 50.3498 169.765 51.0542 170.879 51.7655L171.417 50.9226L171.955 50.0797ZM161.749 43.8292C160.602 43.1563 159.451 42.4904 158.296 41.8314L157.8 42.7001L157.305 43.5688C158.453 44.2236 159.597 44.8854 160.736 45.5541L161.242 44.6916L161.749 43.8292ZM151.313 37.9639L150.839 38.8447L150.366 39.7254C149.203 39.1004 148.036 38.4824 146.865 37.8715L147.327 36.9848L147.79 36.0982C148.969 36.713 150.143 37.3349 151.313 37.9639ZM140.667 32.4954L140.227 33.3934L139.787 34.2913C138.601 33.7098 137.41 33.1355 136.216 32.5685L136.645 31.6651L137.074 30.7618C138.276 31.3324 139.474 31.9103 140.667 32.4954ZM129.827 27.4317L129.421 28.3455L129.014 29.2594C127.806 28.7224 126.594 28.1927 125.378 27.6704L125.772 26.7516L126.167 25.8327C127.391 26.3583 128.611 26.8913 129.827 27.4317ZM118.801 22.7781L118.43 23.7066L118.058 24.6351C116.832 24.1444 115.601 23.6612 114.367 23.1854L114.727 22.2523L115.087 21.3193C116.329 21.7981 117.567 22.2844 118.801 22.7781ZM107.604 18.5415L107.268 19.4833L106.932 20.4251C105.689 19.9816 104.443 19.5455 103.193 19.1171L103.518 18.1711L103.842 17.2252C105.1 17.6564 106.354 18.0952 107.604 18.5415ZM96.2552 14.7299L95.9547 15.6837L95.6543 16.6375C94.396 16.2412 93.1343 15.8524 91.8693 15.4713L92.1577 14.5138L92.4462 13.5563C93.7192 13.9398 94.9889 14.3311 96.2552 14.7299ZM84.7808 11.3517C83.4967 10.9998 82.2094 10.6556 80.9189 10.3194L80.6668 11.2871L80.4146 12.2548C81.697 12.5889 82.9762 12.9308 84.2522 13.2805L84.5165 12.3161L84.7808 11.3517ZM73.183 8.40691L72.9552 9.38061L72.7274 10.3543C71.4412 10.0534 70.1519 9.76027 68.8596 9.47501L69.0752 8.49852L69.2908 7.52203C70.5912 7.80909 71.8886 8.10407 73.183 8.40691ZM61.4757 5.89937L61.2847 6.88096L61.0937 7.86255C59.7996 7.61073 58.5026 7.36676 57.2029 7.13069L57.3817 6.14679L57.5604 5.16288C58.8683 5.40045 60.1734 5.64596 61.4757 5.89937ZM49.6802 3.83332L49.5262 4.82139L49.3721 5.80946C48.07 5.6065 46.7653 5.41144 45.458 5.22433L45.5997 4.23442L45.7414 3.24451C47.0569 3.43279 48.3698 3.62908 49.6802 3.83332ZM37.8336 2.2131L37.7167 3.20623L37.5997 4.19937C36.285 4.04451 34.9678 3.89768 33.6483 3.75891L33.7528 2.76439L33.8574 1.76988C35.1853 1.90951 36.5107 2.05727 37.8336 2.2131ZM25.9268 1.03513C24.6023 0.928923 23.2754 0.830787 21.9464 0.740767L21.8788 1.73848L21.8112 2.73619C23.132 2.82566 24.4507 2.92318 25.767 3.02873L25.8469 2.03193L25.9268 1.03513ZM13.9723 0.299561L13.9294 1.29864L13.8864 2.29772C12.571 2.2412 11.2535 2.19268 9.93399 2.1522L9.96466 1.15267L9.99533 0.153136C11.323 0.193872 12.6487 0.242697 13.9723 0.299561Z" fill="#0055F9"/>
</svg>
