<svg width="320" height="320" viewBox="0 0 320 320" fill="none" xmlns="http://www.w3.org/2000/svg">
<path fill-rule="evenodd" clip-rule="evenodd" d="M318.007 317.994C318.671 317.998 319.335 318 320 318L320 320C319.331 320 318.663 319.998 317.995 319.994L318.001 318.994L318.007 317.994ZM2.00003 -2.78004e-05L2.79753e-05 -2.79753e-05C2.79168e-05 0.668765 0.00210305 1.3371 0.00619235 2.00492L1.00613 1.99878L2.00613 1.99265C2.00204 1.32889 2.00003 0.664676 2.00003 -2.78004e-05ZM0.153164 9.99521L1.15268 9.96454L2.15225 9.93387C2.19271 11.2534 2.24124 12.5709 2.29776 13.8863L1.29867 13.9292L0.299587 13.9722C0.242703 12.6486 0.193875 11.3229 0.153164 9.99521ZM0.74081 21.9462L1.73849 21.8786L2.73623 21.8111C2.82565 23.1319 2.92318 24.4505 3.02877 25.7669L2.03195 25.8468L1.03512 25.9267C0.92892 24.6021 0.830836 23.2753 0.74081 21.9462ZM1.76992 33.8573L2.76443 33.7527L3.75894 33.6481C3.89767 34.9677 4.04452 36.2849 4.19937 37.5996L3.20626 37.7166L2.2131 37.8335C2.05728 36.5106 1.90957 35.1852 1.76992 33.8573ZM3.24453 45.7412L4.23446 45.5996L5.22433 45.4579C5.41146 46.7652 5.60653 48.0699 5.80947 49.372L4.82143 49.5261L3.83334 49.6801C3.62911 48.3698 3.43282 47.0568 3.24453 45.7412ZM5.16293 57.5603L6.14681 57.3816L7.1307 57.2029C7.36678 58.5026 7.61074 59.7995 7.86257 61.0936L6.88094 61.2846L5.89938 61.4756C5.64596 60.1733 5.40047 58.8682 5.16293 57.5603ZM7.52206 69.2907L8.49856 69.0751L9.475 68.8596C9.76028 70.1518 10.0534 71.4411 10.3543 72.7273L9.38064 72.9551L8.40694 73.1829C8.10409 71.8885 7.8091 70.5911 7.52206 69.2907ZM10.3194 80.9189L11.2871 80.6667L12.2548 80.4146C12.5889 81.6969 12.9309 82.9761 13.2805 84.2521L12.3161 84.5164L11.3517 84.7807C10.9998 83.4966 10.6557 82.2093 10.3194 80.9189ZM13.5563 92.4461L14.5138 92.1577L15.4713 91.8692C15.8524 93.1342 16.2412 94.3959 16.6375 95.6542L15.6837 95.9547L14.7299 96.2551C14.3311 94.9888 13.9398 93.7192 13.5563 92.4461ZM17.2252 103.842L18.1712 103.518L19.1171 103.193C19.5456 104.443 19.9816 105.689 20.4251 106.931L19.4833 107.268L18.5415 107.604C18.0952 106.353 17.6564 105.1 17.2252 103.842ZM21.3193 115.087C21.7981 116.329 22.2844 117.567 22.7782 118.801L23.7066 118.429L24.6351 118.058C24.1444 116.832 23.6612 115.601 23.1854 114.367L22.2523 114.727L21.3193 115.087ZM25.8327 126.167L26.7516 125.772L27.6704 125.378C28.1927 126.594 28.7224 127.806 29.2594 129.014L28.3455 129.42L27.4317 129.827C26.8914 128.611 26.3583 127.391 25.8327 126.167ZM30.7617 137.074L31.6651 136.645L32.5685 136.216C33.1355 137.41 33.7099 138.601 34.2913 139.787L33.3934 140.227L32.4954 140.667C31.9103 139.474 31.3324 138.276 30.7617 137.074ZM36.0982 147.79L36.9848 147.327L37.8715 146.865C38.4824 148.036 39.1004 149.203 39.7254 150.366L38.8447 150.839L37.9639 151.313C37.3349 150.143 36.713 148.968 36.0982 147.79ZM41.8314 158.296L42.7001 157.8L43.5687 157.305C44.2236 158.453 44.8854 159.597 45.554 160.736L44.6916 161.242L43.8292 161.749C43.1563 160.602 42.4904 159.451 41.8314 158.296ZM47.9531 168.578L48.8026 168.05L49.6521 167.523C50.3497 168.646 51.0542 169.765 51.7655 170.879L50.9226 171.417L50.0797 171.955C49.364 170.834 48.6551 169.708 47.9531 168.578ZM54.4548 178.624L55.284 178.065L56.1132 177.506C56.8524 178.603 57.5983 179.695 58.3507 180.782L57.5285 181.351L56.7063 181.92C55.9492 180.827 55.1986 179.728 54.4548 178.624ZM61.3292 188.424L62.1371 187.835L62.9449 187.245C63.7237 188.313 64.509 189.375 65.3007 190.432L64.5003 191.032L63.6998 191.631C62.9031 190.567 62.1129 189.498 61.3292 188.424ZM68.5631 197.96L69.3484 197.341L70.1337 196.721C70.9519 197.759 71.7765 198.792 72.6074 199.819L71.8298 200.448L71.0523 201.077C70.2162 200.043 69.3865 199.004 68.5631 197.96ZM76.1464 207.218L76.9081 206.571L77.6697 205.923C78.5262 206.929 79.3888 207.931 80.2575 208.927L79.5039 209.584L78.7503 210.242C77.8761 209.239 77.0082 208.232 76.1464 207.218ZM84.0687 216.189L84.8058 215.513L85.5429 214.837C86.4362 215.812 87.3355 216.78 88.2407 217.743L87.512 218.428L86.7833 219.113C85.8724 218.144 84.9676 217.169 84.0687 216.189ZM92.3196 224.859L93.0311 224.157L93.7426 223.454C94.6713 224.394 95.6058 225.329 96.5462 226.257L95.8435 226.969L95.1407 227.68C94.1945 226.746 93.2542 225.805 92.3196 224.859ZM100.887 233.217C101.856 234.127 102.831 235.032 103.811 235.931L104.487 235.194L105.163 234.457C104.188 233.564 103.22 232.665 102.257 231.759L101.572 232.488L100.887 233.217ZM109.758 241.25L110.416 240.496L111.073 239.742C112.069 240.611 113.07 241.474 114.077 242.33L113.429 243.092L112.782 243.854C111.768 242.992 110.761 242.124 109.758 241.25ZM118.923 248.948L119.552 248.17L120.181 247.393C121.208 248.223 122.241 249.048 123.279 249.866L122.659 250.652L122.04 251.437C120.996 250.613 119.957 249.784 118.923 248.948ZM128.369 256.3L128.968 255.5L129.568 254.699C130.625 255.491 131.687 256.276 132.755 257.055L132.165 257.863L131.576 258.671C130.502 257.887 129.433 257.097 128.369 256.3ZM138.08 263.294L138.649 262.471L139.218 261.649C140.305 262.402 141.397 263.148 142.493 263.887L141.935 264.716L141.376 265.545C140.272 264.801 139.173 264.051 138.08 263.294ZM148.045 269.92C149.166 270.636 150.291 271.345 151.422 272.047L151.95 271.197L152.477 270.348C151.354 269.65 150.235 268.946 149.121 268.235L148.583 269.077L148.045 269.92ZM158.251 276.171C159.398 276.844 160.549 277.51 161.704 278.169L162.2 277.3L162.695 276.431C161.547 275.776 160.403 275.115 159.264 274.446L158.758 275.308L158.251 276.171ZM168.687 282.036L169.161 281.155L169.634 280.275C170.797 280.9 171.964 281.518 173.135 282.129L172.673 283.015L172.21 283.902C171.031 283.287 169.857 282.665 168.687 282.036ZM179.333 287.505L179.773 286.607L180.213 285.709C181.399 286.29 182.59 286.864 183.784 287.431L183.355 288.335L182.926 289.238C181.724 288.668 180.526 288.09 179.333 287.505ZM190.173 292.568L190.58 291.654L190.986 290.741C192.194 291.278 193.406 291.807 194.622 292.33L194.228 293.248L193.833 294.167C192.609 293.642 191.389 293.109 190.173 292.568ZM201.199 297.222L201.57 296.293L201.942 295.365C203.168 295.856 204.399 296.339 205.633 296.815L205.273 297.748L204.913 298.681C203.671 298.202 202.433 297.716 201.199 297.222ZM212.396 301.458L212.732 300.517L213.068 299.575C214.311 300.018 215.557 300.454 216.807 300.883L216.482 301.829L216.158 302.775C214.9 302.344 213.646 301.905 212.396 301.458ZM223.745 305.27L224.045 304.316L224.346 303.362C225.604 303.759 226.866 304.148 228.131 304.529L227.842 305.486L227.554 306.444C226.281 306.06 225.011 305.669 223.745 305.27ZM235.219 308.648C236.503 309 237.791 309.344 239.081 309.681L239.333 308.713L239.585 307.745C238.303 307.411 237.024 307.069 235.748 306.719L235.484 307.684L235.219 308.648ZM246.817 311.593L247.045 310.619L247.273 309.646C248.559 309.947 249.848 310.24 251.14 310.525L250.925 311.501L250.709 312.478C249.409 312.191 248.111 311.896 246.817 311.593ZM258.524 314.101L258.715 313.119L258.906 312.137C260.2 312.389 261.497 312.633 262.797 312.869L262.618 313.853L262.44 314.837C261.132 314.6 259.827 314.354 258.524 314.101ZM270.32 316.167L270.474 315.179L270.628 314.191C271.93 314.393 273.235 314.589 274.542 314.776L274.4 315.766L274.259 316.755C272.943 316.567 271.63 316.371 270.32 316.167ZM282.166 317.787L282.283 316.794L282.4 315.801C283.715 315.955 285.032 316.102 286.352 316.241L286.247 317.236L286.143 318.23C284.815 318.09 283.489 317.943 282.166 317.787ZM294.073 318.965C295.398 319.071 296.725 319.169 298.054 319.259L298.121 318.262L298.189 317.264C296.868 317.174 295.549 317.077 294.233 316.971L294.153 317.968L294.073 318.965ZM306.028 319.7L306.071 318.701L306.114 317.702C307.429 317.759 308.746 317.807 310.066 317.848L310.035 318.847L310.005 319.847C308.677 319.806 307.351 319.757 306.028 319.7Z" fill="#0055F9"/>
</svg>
