<svg width="64" height="64" viewBox="0 0 64 64" fill="none" xmlns="http://www.w3.org/2000/svg">
<path d="M54.7229 8.38389C49.3161 2.9771 42.1271 -0.000302404 34.4811 2.30369e-08C33.2281 2.30369e-08 32.2129 1.01555 32.2129 2.26821C32.2129 3.52086 33.2284 4.53641 34.4811 4.53641C40.9155 4.53611 46.965 7.04172 51.515 11.5917C56.0653 16.1418 58.571 22.1915 58.5707 28.6263C58.5707 29.8789 59.5859 30.8945 60.8389 30.8945C62.0915 30.8945 63.1071 29.8789 63.1071 28.6266C63.1074 20.9797 60.13 13.7907 54.7229 8.38389Z" fill="#0055F9"/>
<path d="M45.3924 28.6261C45.3924 29.8788 46.4079 30.8943 47.6609 30.894C48.9135 30.894 49.9288 29.8785 49.9288 28.6258C49.9282 20.1094 42.9984 13.1799 34.4814 13.1787C34.4811 13.1787 34.4814 13.1787 34.4811 13.1787C33.2284 13.1787 32.2132 14.194 32.2129 15.4466C32.2129 16.6993 33.2281 17.7148 34.4808 17.7151C40.497 17.716 45.3918 22.6105 45.3924 28.6261Z" fill="#0055F9"/>
<path d="M40.3738 40.1913C36.9165 40.0123 35.1551 42.5835 34.3104 43.8186C33.6031 44.8526 33.868 46.264 34.902 46.9714C35.936 47.6788 37.3474 47.4139 38.0548 46.3799C39.0528 44.9206 39.5049 44.6911 40.1183 44.7201C42.0813 44.9509 49.8129 50.6166 50.5871 52.3882C50.7812 52.9099 50.774 53.4213 50.5656 54.0434C49.7539 56.4525 48.4102 58.1455 46.6791 58.9391C45.0345 59.693 43.0182 59.6247 40.8495 58.7422C32.7514 55.4415 25.6764 50.8352 19.8214 45.051C19.819 45.0486 19.8166 45.0465 19.8145 45.044C14.0424 39.1948 9.44455 32.1289 6.1493 24.0432C5.26652 21.8727 5.19817 19.8561 5.95212 18.2118C6.74569 16.4807 8.43868 15.137 10.8457 14.3262C11.4699 14.1169 11.9804 14.1102 12.4973 14.3026C14.2752 15.0795 19.9406 22.8108 20.1692 24.7518C20.2019 25.3881 19.9705 25.8399 18.5125 26.8361C17.4782 27.5426 17.2124 28.954 17.9192 29.9883C18.6256 31.0226 20.0368 31.2881 21.0714 30.5817C22.3071 29.7379 24.8777 27.9814 24.6993 24.5122C24.5027 20.8886 17.4537 11.2922 14.0856 10.0538C12.5877 9.49551 11.012 9.48583 9.4007 10.0266C5.7752 11.2475 3.15678 13.4243 1.82852 16.3216C0.540181 19.1324 0.581008 22.3934 1.94798 25.754C5.47459 34.4071 10.4087 41.9783 16.613 48.2582C16.6281 48.2737 16.6435 48.2888 16.6593 48.3036C22.9346 54.4964 30.4971 59.4214 39.1387 62.9438C40.8692 63.6476 42.5734 63.9999 44.2031 63.9999C45.7377 63.9999 47.2069 63.6878 48.5696 63.063C51.4671 61.735 53.6437 59.1169 54.8655 55.489C55.4051 53.8807 55.3963 52.3056 54.8422 50.8147C53.5996 47.4375 44.0032 40.3885 40.3738 40.1913Z" fill="#0055F9"/>
</svg>
