<svg width="64" height="64" viewBox="0 0 64 64" fill="none" xmlns="http://www.w3.org/2000/svg">
<g clip-path="url(#clip0)">
<path d="M32.0007 0C14.356 0 0.000976562 14.355 0.000976562 31.9997C0.000976562 49.645 14.356 64.0003 32.0007 64.0003C33.321 64.0003 34.3909 62.9301 34.3909 61.61C34.3909 60.29 33.321 59.2198 32.0007 59.2198C16.992 59.2198 4.78152 47.009 4.78152 31.9997C4.78152 16.991 16.992 4.78054 32.0007 4.78054C47.0093 4.78054 59.2198 16.991 59.2198 31.9997V39.4031C59.2198 42.1669 56.971 44.4154 54.2069 44.4154C51.4431 44.4154 49.1947 42.1669 49.1947 39.4031V31.9997C49.1947 22.5183 41.4814 14.8047 32.0003 14.8047C22.5189 14.8047 14.8054 22.5183 14.8054 31.9997C14.8054 41.4817 22.5189 49.1959 32.0003 49.1959C37.2624 49.1959 41.9773 46.8175 45.1338 43.0816C46.5909 46.6632 50.1078 49.1959 54.2069 49.1959C59.6067 49.1959 64.0003 44.8029 64.0003 39.4031V31.9997C64.0003 14.355 49.6453 0 32.0007 0ZM32.0007 44.4154C25.1552 44.4154 19.5862 38.8457 19.5862 31.9997C19.5862 25.1543 25.1556 19.5852 32.0007 19.5852C38.8458 19.5852 44.4145 25.1543 44.4145 31.9997C44.4145 38.8457 38.8458 44.4154 32.0007 44.4154Z" fill="#0055F9"/>
</g>
<defs>
<clipPath id="clip0">
<rect width="64" height="64" fill="white"/>
</clipPath>
</defs>
</svg>
