<svg width="64" height="64" viewBox="0 0 64 64" fill="none" xmlns="http://www.w3.org/2000/svg">
<path d="M31.999 0C18.4001 0 7.33691 11.0647 7.33691 24.6651C7.33691 34.3832 11.4055 44.2133 19.1029 53.093C24.852 59.7254 30.5496 63.483 30.7895 63.6398C31.1568 63.88 31.5781 64 31.9993 64C32.4203 64 32.8415 63.88 33.2091 63.6398C33.4488 63.483 39.1472 59.7254 44.8964 53.0933C52.5943 44.2133 56.6632 34.3832 56.6632 24.6651C56.6629 11.0647 45.5985 0 31.999 0ZM31.999 59.0745C27.4632 55.6945 11.7587 42.6863 11.7587 24.6651C11.7587 13.5028 20.8383 4.42174 31.999 4.42174C43.1607 4.42174 52.2412 13.5028 52.2412 24.6651C52.2412 42.6863 36.5352 55.6945 31.999 59.0745Z" fill="#0055F9"/>
<path d="M32.0005 14.8711C26.603 14.8711 22.2119 19.2625 22.2119 24.6605C22.2119 30.0571 26.603 34.4476 32.0005 34.4476C37.3979 34.4476 41.7887 30.0571 41.7887 24.6605C41.7887 19.2628 37.3976 14.8711 32.0005 14.8711ZM32.0005 30.0259C29.0411 30.0259 26.6337 27.619 26.6337 24.6605C26.6337 21.7006 29.0411 19.2928 32.0005 19.2928C34.9595 19.2928 37.367 21.7006 37.367 24.6605C37.367 27.619 34.9595 30.0259 32.0005 30.0259Z" fill="#0055F9"/>
</svg>
