<svg width="128" height="128" viewBox="0 0 128 128" fill="none" xmlns="http://www.w3.org/2000/svg">
<g clip-path="url(#clip0)">
<path d="M100.266 0.000976562H10.6666C4.78505 0.000976562 0 4.78602 0 10.6676V61.8674C0 67.749 4.78505 72.534 10.6666 72.534H25.5999V83.2006C25.5999 86.7291 28.4713 89.6006 31.9999 89.6006H38.3998V98.1339H34.1332C28.2516 98.1339 23.4666 102.919 23.4666 108.801V128H27.7332V117.334H100.266V128H104.533V108.801C104.533 102.919 99.7478 98.1339 93.8663 98.1339H51.1998V89.6006H57.5998C61.1283 89.6006 63.9997 86.7291 63.9997 83.2006V72.534H100.266C106.148 72.534 110.933 67.749 110.933 61.8674V10.6676C110.933 4.78602 106.148 0.000976562 100.266 0.000976562ZM93.8663 102.401C97.3948 102.401 100.266 105.272 100.266 108.801V113.067H27.7332V108.801C27.7332 105.272 30.6047 102.401 34.1332 102.401H93.8663ZM42.6665 98.1339V89.6006H46.9331V98.1339H42.6665ZM59.7331 70.4007V83.2006C59.7331 84.3782 58.7774 85.334 57.5998 85.334H31.9999C30.8223 85.334 29.8665 84.3782 29.8665 83.2006V70.4007V57.6007C29.8665 56.4231 30.8223 55.4674 31.9999 55.4674H57.5998C58.7774 55.4674 59.7331 56.4231 59.7331 57.6007V70.4007ZM106.666 61.8674C106.666 65.3959 103.795 68.2674 100.266 68.2674H63.9997V57.6007C63.9997 54.0722 61.1283 51.2008 57.5998 51.2008H31.9999C28.4713 51.2008 25.5999 54.0722 25.5999 57.6007V68.2674H10.6666C7.1381 68.2674 4.26665 65.3959 4.26665 61.8674V10.6676C4.26665 7.13908 7.1381 4.26762 10.6666 4.26762H100.266C103.795 4.26762 106.666 7.13908 106.666 10.6676V61.8674Z" fill="#0055F9"/>
<path d="M51.1998 61.8672H38.3999C37.2201 61.8672 36.2665 62.8208 36.2665 64.0005V76.8005C36.2665 77.9802 37.2201 78.9338 38.3999 78.9338H51.1998C52.3795 78.9338 53.3331 77.9802 53.3331 76.8005V64.0005C53.3331 62.8208 52.3795 61.8672 51.1998 61.8672ZM49.0665 74.6671H40.5332V66.1338H49.0665V74.6671Z" fill="#0055F9"/>
<path d="M34.1332 10.667C31.8121 10.667 29.5679 11.4478 27.7268 12.8494C25.9412 11.499 23.7418 10.667 21.3332 10.667C15.4517 10.667 10.6666 15.452 10.6666 21.3336C10.6666 27.2152 15.4517 32.0002 21.3332 32.0002C23.7418 32.0002 25.9412 31.1682 27.729 29.8178C29.5679 31.2194 31.8121 32.0002 34.1332 32.0002C40.0148 32.0002 44.7998 27.2152 44.7998 21.3336C44.7998 15.452 40.0148 10.667 34.1332 10.667ZM27.5882 22.6733C27.5754 22.7373 27.5455 22.7971 27.5306 22.8611C27.2319 24.0237 26.6516 24.924 26.129 25.5213C26.1183 25.532 26.1162 25.5469 26.1076 25.5597C24.9322 26.8803 23.2383 27.7336 21.3332 27.7336C17.8047 27.7336 14.9333 24.8621 14.9333 21.3336C14.9333 17.8051 17.8047 14.9336 21.3332 14.9336C23.2383 14.9336 24.9322 15.787 26.1055 17.1096C26.1162 17.1203 26.1183 17.1352 26.1268 17.148C26.6495 17.7454 27.2319 18.6456 27.5284 19.8083C27.5434 19.8723 27.5732 19.9299 27.586 19.9939C27.6778 20.4078 27.7332 20.8536 27.7332 21.3336C27.7332 21.8136 27.6778 22.2595 27.5882 22.6733ZM34.1332 27.7336C32.8383 27.7336 31.6116 27.3453 30.5641 26.62C30.6559 26.4621 30.722 26.2957 30.8052 26.1336C30.9823 25.7837 31.1508 25.4339 31.2895 25.0648C31.4516 24.6403 31.5881 24.2072 31.6948 23.7656C31.7396 23.5715 31.778 23.3773 31.8143 23.1789C31.9231 22.5688 31.9999 21.9565 31.9999 21.3336C31.9999 20.7107 31.9231 20.0984 31.8143 19.4904C31.7801 19.292 31.7417 19.0979 31.6948 18.9038C31.5881 18.4622 31.4537 18.0291 31.2895 17.6046C31.1508 17.2355 30.9844 16.8856 30.8052 16.5358C30.722 16.3736 30.6559 16.2072 30.5641 16.0494C31.6116 15.3219 32.8383 14.9336 34.1332 14.9336C37.6617 14.9336 40.5332 17.8051 40.5332 21.3336C40.5332 24.8621 37.6617 27.7336 34.1332 27.7336Z" fill="#0055F9"/>
<path d="M127.374 79.5587L118.841 71.0254L115.825 74.0419L120.716 78.9336H95.9996V83.2003H120.716L115.825 88.092L118.841 91.1085L127.374 82.5752C128.209 81.7411 128.209 80.3928 127.374 79.5587Z" fill="#0055F9"/>
<path d="M91.733 78.9336H87.4663V83.2002H91.733V78.9336Z" fill="#0055F9"/>
<path d="M83.1996 78.9336H78.933V83.2002H83.1996V78.9336Z" fill="#0055F9"/>
<path d="M74.6664 78.9336H70.3997V83.2002H74.6664V78.9336Z" fill="#0055F9"/>
<path d="M100.266 51.2002H74.6664V55.4668H100.266V51.2002Z" fill="#0055F9"/>
<path d="M93.8663 59.7334H81.0663V64H93.8663V59.7334Z" fill="#0055F9"/>
<path d="M14.9333 42.667H10.6666V46.9336H14.9333V42.667Z" fill="#0055F9"/>
<path d="M23.4665 42.667H19.1999V46.9336H23.4665V42.667Z" fill="#0055F9"/>
<path d="M31.9999 42.667H27.7332V46.9336H31.9999V42.667Z" fill="#0055F9"/>
<path d="M40.5332 42.667H36.2665V46.9336H40.5332V42.667Z" fill="#0055F9"/>
<path d="M53.3331 42.667H49.0665V46.9336H53.3331V42.667Z" fill="#0055F9"/>
<path d="M61.8664 42.667H57.5997V46.9336H61.8664V42.667Z" fill="#0055F9"/>
<path d="M70.3997 42.667H66.1331V46.9336H70.3997V42.667Z" fill="#0055F9"/>
<path d="M78.933 42.667H74.6664V46.9336H78.933V42.667Z" fill="#0055F9"/>
<path d="M91.733 42.667H87.4663V46.9336H91.733V42.667Z" fill="#0055F9"/>
<path d="M100.266 42.667H95.9996V46.9336H100.266V42.667Z" fill="#0055F9"/>
</g>
<defs>
<clipPath id="clip0">
<rect width="128" height="128" fill="white"/>
</clipPath>
</defs>
</svg>
