<svg width="128" height="128" viewBox="0 0 128 128" fill="none" xmlns="http://www.w3.org/2000/svg">
<g clip-path="url(#clip0)">
<path d="M125.866 108.8H123.733V42.6674C123.733 36.7858 118.948 32.0008 113.066 32.0008H98.133V25.6009C98.133 24.9161 97.7917 24.2931 97.2498 23.8963L97.2605 23.8793L65.2608 0.412797C64.5098 -0.137599 63.488 -0.137599 62.7371 0.412797L30.7373 23.8793L30.748 23.8963C30.2083 24.2931 29.8669 24.9161 29.8669 25.6009V32.0008H14.9337C9.05218 32.0008 4.26715 36.7858 4.26715 42.6674V108.8H2.13383C0.956244 108.8 0.000518799 109.754 0.000518799 110.933V117.333C0.000518799 123.215 4.78555 128 10.6671 128H117.333C123.214 128 127.999 123.215 127.999 117.333V110.933C127.999 109.754 127.044 108.8 125.866 108.8ZM98.133 53.334C100.486 53.334 102.4 55.2475 102.4 57.6006C102.4 59.9536 100.486 61.8672 98.133 61.8672V53.334ZM64 4.77969L92.2792 25.5177L85.3331 30.1469V25.6009C85.3331 24.4211 84.3774 23.4675 83.1998 23.4675H44.8001C43.6226 23.4675 42.6668 24.4211 42.6668 25.6009V30.1469L35.7208 25.5177L64 4.77969ZM81.0665 27.7342V32.9928L64 44.3698L46.9335 32.9928V27.7342H81.0665ZM34.1336 29.5859L62.816 48.7089C63.5328 49.1889 64.465 49.1889 65.1818 48.7089L93.8664 29.5859V61.8672H34.1336V29.5859ZM32.0003 66.1339H95.9997H98.133C102.839 66.1339 106.666 62.3067 106.666 57.6006C106.666 52.8945 102.839 49.0673 98.133 49.0673V44.8007H110.933V100.267H17.067V44.8007H29.8669V49.0673C25.1608 49.0673 21.3337 52.8945 21.3337 57.6006C21.3337 62.3067 25.1608 66.1339 29.8669 66.1339H32.0003ZM29.8669 53.334V61.8672C27.5139 61.8672 25.6003 59.9536 25.6003 57.6006C25.6003 55.2475 27.5139 53.334 29.8669 53.334ZM8.53378 42.6674C8.53378 39.1389 11.4052 36.2674 14.9337 36.2674H29.8669V40.5341H14.9337C13.7561 40.5341 12.8004 41.4877 12.8004 42.6674V102.4C12.8004 103.58 13.7561 104.534 14.9337 104.534H113.066C114.244 104.534 115.2 103.58 115.2 102.4V42.6674C115.2 41.4877 114.244 40.5341 113.066 40.5341H98.133V36.2674H113.066C116.595 36.2674 119.466 39.1389 119.466 42.6674V108.8H76.7999C75.6223 108.8 74.6666 109.754 74.6666 110.933C74.6666 112.111 73.7087 113.067 72.5332 113.067H55.4667C54.2913 113.067 53.3334 112.111 53.3334 110.933C53.3334 109.754 52.3777 108.8 51.2001 108.8H8.53378V42.6674ZM123.733 117.333C123.733 120.862 120.861 123.733 117.333 123.733H10.6671C7.13859 123.733 4.26715 120.862 4.26715 117.333V113.067H49.4316C50.3126 115.55 52.6849 117.333 55.4667 117.333H72.5332C75.3151 117.333 77.6873 115.55 78.5684 113.067H123.733V117.333Z" fill="#0055F9"/>
<path d="M66.1333 70.4004H61.8667V74.667H66.1333V70.4004Z" fill="#0055F9"/>
<path d="M66.1333 78.9336H61.8667V83.2002H66.1333V78.9336Z" fill="#0055F9"/>
<path d="M57.6 78.9336H53.3334V83.2002H57.6V78.9336Z" fill="#0055F9"/>
<path d="M74.6666 78.9336H70.4V83.2002H74.6666V78.9336Z" fill="#0055F9"/>
<path d="M66.1333 87.4668H61.8667V91.7334H66.1333V87.4668Z" fill="#0055F9"/>
<path d="M57.6 87.4668H53.3334V91.7334H57.6V87.4668Z" fill="#0055F9"/>
<path d="M49.0668 87.4668H44.8001V91.7334H49.0668V87.4668Z" fill="#0055F9"/>
<path d="M74.6666 87.4668H70.4V91.7334H74.6666V87.4668Z" fill="#0055F9"/>
<path d="M83.1999 87.4668H78.9332V91.7334H83.1999V87.4668Z" fill="#0055F9"/>
</g>
<defs>
<clipPath id="clip0">
<rect width="128" height="128" fill="white"/>
</clipPath>
</defs>
</svg>
