<svg width="128" height="128" viewBox="0 0 128 128" fill="none" xmlns="http://www.w3.org/2000/svg">
<path d="M48 12H80V16H48V12Z" fill="#0055F9"/>
<path d="M48 20H80V24H48V20Z" fill="#0055F9"/>
<path d="M48 28H80V32H48V28Z" fill="#0055F9"/>
<path d="M54 54H82V58H54V54Z" fill="#0055F9"/>
<path d="M50 62H78V66H50V62Z" fill="#0055F9"/>
<path d="M46 70H74V74H46V70Z" fill="#0055F9"/>
<path d="M48 96H80V100H48V96Z" fill="#0055F9"/>
<path d="M48 104H80V108H48V104Z" fill="#0055F9"/>
<path d="M48 112H80V116H48V112Z" fill="#0055F9"/>
<path d="M27 108H40V122C40 123.104 40.8945 124 42 124H86C87.1055 124 88 123.104 88 122V108H92.1389C93.1282 115.88 99.8564 122 108 122C116.822 122 124 114.822 124 106C124 97.1777 116.822 90 108 90C99.8564 90 93.1282 96.1201 92.1389 104H88V90C88 88.8955 87.1055 88 86 88H42C40.8945 88 40 88.8955 40 90V104H27C21.9375 104 17.1699 102.021 13.5742 98.4258C9.98046 94.832 8 90.0635 8 85C8 74.5234 16.5234 66 27 66H39.1136L34.1269 79.2979C33.8965 79.9121 33.9824 80.5996 34.3555 81.1397C34.7305 81.6787 35.3438 82 36 82H80C80.834 82 81.5801 81.4824 81.873 80.7021L87.3864 66H101C107.131 66 112.902 63.6045 117.254 59.2539C121.604 54.9053 124 49.1328 124 43C124 30.3174 113.682 20 101 20H88V6C88 4.8955 87.1055 4 86 4H42C40.8945 4 40 4.8955 40 6V38C40 39.1045 40.8945 40 42 40H86C87.1055 40 88 39.1045 88 38V24H101C111.477 24 120 32.5234 120 43C120 48.0635 118.02 52.832 114.426 56.4258C110.83 60.0205 106.062 62 101 62H88.8864L93.8731 48.7021C94.1035 48.0879 94.0176 47.4004 93.6445 46.8603C93.2695 46.3213 92.6562 46 92 46H48C47.166 46 46.4199 46.5176 46.127 47.2979L40.6136 62H27C14.3184 62 4 72.3174 4 85C4 91.1328 6.39648 96.9053 10.7461 101.254C15.0977 105.604 20.8691 108 27 108ZM108 94C114.617 94 120 99.3828 120 106C120 112.617 114.617 118 108 118C101.383 118 96 112.617 96 106C96 99.3828 101.383 94 108 94ZM44 92H84V120H44V92ZM84 36H44V8H84V36ZM49.3867 50H89.1133L78.6133 78H38.8867L49.3867 50Z" fill="#0055F9"/>
<path d="M106 112C106.512 112 107.023 111.805 107.414 111.414L115.414 103.414L112.586 100.586L106 107.172L103.414 104.586L100.586 107.414L104.586 111.414C104.977 111.805 105.488 112 106 112Z" fill="#0055F9"/>
</svg>
