<svg width="128" height="128" viewBox="0 0 128 128" fill="none" xmlns="http://www.w3.org/2000/svg">
<path d="M50 30C50 31.1055 50.8955 32 52 32H76C77.1045 32 78 31.1055 78 30C78 24.3987 74.6851 19.5682 69.9205 17.3319C71.199 15.9136 72 14.0558 72 12C72 7.5879 68.4111 4 64 4C59.5889 4 56 7.5879 56 12C56 14.0558 56.801 15.9136 58.0795 17.3319C53.3149 19.5682 50 24.3987 50 30ZM60 12C60 9.79492 61.7939 8 64 8C66.2061 8 68 9.79492 68 12C68 14.2051 66.2061 16 64 16C61.7939 16 60 14.2051 60 12ZM64 20C68.8291 20 72.8701 23.4414 73.7988 28H54.2012C55.1299 23.4414 59.1709 20 64 20Z" fill="#0055F9"/>
<path d="M82 44C82 45.1055 82.8955 46 84 46H108C109.104 46 110 45.1055 110 44C110 38.3987 106.685 33.5682 101.921 31.3319C103.199 29.9136 104 28.0558 104 26C104 21.5879 100.411 18 96 18C91.5889 18 88 21.5879 88 26C88 28.0558 88.801 29.9136 90.0795 31.3319C85.3149 33.5682 82 38.3987 82 44ZM92 26C92 23.7949 93.7939 22 96 22C98.2061 22 100 23.7949 100 26C100 28.2051 98.2061 30 96 30C93.7939 30 92 28.2051 92 26ZM96 34C100.829 34 104.87 37.4414 105.799 42H86.2012C87.1299 37.4414 91.1709 34 96 34Z" fill="#0055F9"/>
<path d="M96 82C91.5889 82 88 85.5879 88 90C88 92.0558 88.801 93.9136 90.0795 95.3319C85.3149 97.5682 82 102.399 82 108C82 109.105 82.8955 110 84 110H108C109.104 110 110 109.105 110 108C110 102.399 106.685 97.5682 101.921 95.3319C103.199 93.9136 104 92.0558 104 90C104 85.5879 100.411 82 96 82ZM92 90C92 87.7949 93.7939 86 96 86C98.2061 86 100 87.7949 100 90C100 92.2051 98.2061 94 96 94C93.7939 94 92 92.2051 92 90ZM105.799 106H86.2012C87.1299 101.441 91.1709 98 96 98C100.829 98 104.87 101.441 105.799 106Z" fill="#0055F9"/>
<path d="M50 122C50 123.105 50.8955 124 52 124H76C77.1045 124 78 123.105 78 122C78 116.399 74.6851 111.568 69.9205 109.332C71.199 107.914 72 106.056 72 104C72 99.5879 68.4111 96 64 96C59.5889 96 56 99.5879 56 104C56 106.056 56.801 107.914 58.0795 109.332C53.3149 111.568 50 116.399 50 122ZM60 104C60 101.795 61.7939 100 64 100C66.2061 100 68 101.795 68 104C68 106.205 66.2061 108 64 108C61.7939 108 60 106.205 60 104ZM64 112C68.8291 112 72.8701 115.441 73.7988 120H54.2012C55.1299 115.441 59.1709 112 64 112Z" fill="#0055F9"/>
<path d="M115.921 63.3319C117.199 61.9136 118 60.0558 118 58C118 53.5879 114.411 50 110 50C105.589 50 102 53.5879 102 58C102 60.0558 102.801 61.9136 104.079 63.3319C99.3149 65.5682 96 70.3987 96 76C96 77.1055 96.8955 78 98 78H122C123.104 78 124 77.1055 124 76C124 70.3987 120.685 65.5682 115.921 63.3319ZM106 58C106 55.7949 107.794 54 110 54C112.206 54 114 55.7949 114 58C114 60.2051 112.206 62 110 62C107.794 62 106 60.2051 106 58ZM100.201 74C101.13 69.4414 105.171 66 110 66C114.829 66 118.87 69.4414 119.799 74H100.201Z" fill="#0055F9"/>
<path d="M18 44C18 45.1055 18.8955 46 20 46H44C45.1045 46 46 45.1055 46 44C46 38.3987 42.6851 33.5682 37.9205 31.3319C39.199 29.9136 40 28.0558 40 26C40 21.5879 36.4111 18 32 18C27.5889 18 24 21.5879 24 26C24 28.0558 24.801 29.9136 26.0795 31.3319C21.3149 33.5682 18 38.3987 18 44ZM28 26C28 23.7949 29.7939 22 32 22C34.2061 22 36 23.7949 36 26C36 28.2051 34.2061 30 32 30C29.7939 30 28 28.2051 28 26ZM32 34C36.8291 34 40.8701 37.4414 41.7988 42H22.2012C23.1299 37.4414 27.1709 34 32 34Z" fill="#0055F9"/>
<path d="M18 108C18 109.105 18.8955 110 20 110H44C45.1045 110 46 109.105 46 108C46 102.399 42.6851 97.5682 37.9205 95.3319C39.199 93.9136 40 92.0558 40 90C40 85.5879 36.4111 82 32 82C27.5889 82 24 85.5879 24 90C24 92.0558 24.801 93.9136 26.0795 95.3319C21.3149 97.5682 18 102.399 18 108ZM28 90C28 87.7949 29.7939 86 32 86C34.2061 86 36 87.7949 36 90C36 92.2051 34.2061 94 32 94C29.7939 94 28 92.2051 28 90ZM32 98C36.8291 98 40.8701 101.441 41.7988 106H22.2012C23.1299 101.441 27.1709 98 32 98Z" fill="#0055F9"/>
<path d="M4 76C4 77.1055 4.8955 78 6 78H30C31.1045 78 32 77.1055 32 76C32 70.3987 28.6851 65.5682 23.9205 63.3319C25.199 61.9136 26 60.0558 26 58C26 53.5879 22.4111 50 18 50C13.5889 50 10 53.5879 10 58C10 60.0558 10.801 61.9136 12.0795 63.3319C7.31494 65.5682 4 70.3987 4 76ZM14 58C14 55.7949 15.7939 54 18 54C20.2061 54 22 55.7949 22 58C22 60.2051 20.2061 62 18 62C15.7939 62 14 60.2051 14 58ZM18 66C22.8291 66 26.8701 69.4414 27.7988 74H8.20118C9.12988 69.4414 13.1709 66 18 66Z" fill="#0055F9"/>
<path d="M42 64C42 76.1309 51.8691 86 64 86C76.1309 86 86 76.1309 86 64C86 51.8691 76.1309 42 64 42C51.8691 42 42 51.8691 42 64ZM64 46C73.9248 46 82 54.0742 82 64C82 73.9258 73.9248 82 64 82C54.0752 82 46 73.9258 46 64C46 54.0742 54.0752 46 64 46Z" fill="#0055F9"/>
</svg>
