<svg width="128" height="128" viewBox="0 0 128 128" fill="none" xmlns="http://www.w3.org/2000/svg">
<path d="M4.4004 101.2L9.70704 108.275L4.16212 121.212C3.82618 121.997 4.02344 122.908 4.65626 123.482C5.0332 123.823 5.51562 124 6 124C6.33008 124 6.6621 123.919 6.9629 123.752L46.9629 101.752C47.6035 101.401 48 100.73 48 100C48 99.2705 47.6035 98.5987 46.9629 98.2481L6.9629 76.2481C6.22072 75.8369 5.28908 75.9434 4.65626 76.5186C4.02344 77.0918 3.82618 78.003 4.16212 78.7881L9.70704 91.7246L4.4004 98.7998C3.86718 99.5108 3.86718 100.489 4.4004 101.2ZM13.4401 109.716L32.2156 105.299L10.127 117.447L13.4401 109.716ZM32.2156 94.7013L13.4401 90.2836L10.1269 82.5528L32.2156 94.7013ZM12.8146 94.247L37.2651 100L12.8146 105.753L8.5 100L12.8146 94.247Z" fill="#0055F9"/>
<path d="M92 4C75.0305 4 61.1422 17.2882 60.1013 34H54.8281L49.4141 28.5859L46.5859 31.4141L49.1719 34H41C29.4199 34 20 43.4209 20 55C20 66.5791 29.4199 76 41 76H63.1719L68.5859 81.4141L71.4141 78.5859L68.8281 76H107C113.064 76 118 80.9346 118 87C118 93.0654 113.064 98 107 98H88.8281L83.4141 92.5859L80.5859 95.4141L83.1719 98H52V102H83.1719L80.5859 104.586L83.4141 107.414L88.8281 102H107C115.271 102 122 95.2715 122 87C122 78.7285 115.271 72 107 72H68.8281L71.4141 69.4141L68.5859 66.5859L63.1719 72H41C31.627 72 24 64.374 24 55C24 45.626 31.627 38 41 38H49.1719L46.5859 40.5859L49.4141 43.4141L54.8281 38H60.1013C61.1422 54.7118 75.0305 68 92 68C109.645 68 124 53.6445 124 36C124 18.3555 109.645 4 92 4ZM92 64C77.2356 64 65.1339 52.5059 64.1013 38H70.1013C71.1163 49.1958 80.5442 58 92 58C104.131 58 114 48.1309 114 36C114 23.8691 104.131 14 92 14C80.5442 14 71.1163 22.8042 70.1013 34H64.1013C65.1339 19.4941 77.2356 8 92 8C107.439 8 120 20.5605 120 36C120 51.4395 107.439 64 92 64ZM87.4141 43.4141L93.4141 37.4141C94.1953 36.6328 94.1953 35.3672 93.4141 34.5859L87.4141 28.5859L84.5859 31.4141L87.1719 34H74.118C75.1169 25.014 82.751 18 92 18C101.926 18 110 26.0752 110 36C110 45.9248 101.926 54 92 54C82.751 54 75.1169 46.986 74.118 38H87.1719L84.5859 40.5859L87.4141 43.4141Z" fill="#0055F9"/>
<path d="M104 36C104 29.3828 98.6172 24 92 24V28C96.4121 28 100 31.5889 100 36C100 40.4111 96.4121 44 92 44V48C98.6172 48 104 42.6172 104 36Z" fill="#0055F9"/>
</svg>
