<svg width="128" height="128" viewBox="0 0 128 128" fill="none" xmlns="http://www.w3.org/2000/svg">
<g clip-path="url(#clip0)">
<path d="M21.5972 121.671V125.867C21.5972 127.044 22.5504 128 23.7306 128H57.8645C59.0437 128 59.9979 127.044 59.9979 125.867V110.933H68.5314V125.867C68.5314 127.044 69.4845 128 70.6647 128H104.799C105.978 128 106.932 127.044 106.932 125.867V121.671C106.932 105.192 111.905 88.3088 121.315 72.8481C126.196 64.8271 128.588 55.5916 128.229 46.1362C127.305 21.7368 107.502 1.50629 83.1472 0.0833508C76.6086 -0.294781 70.2251 0.62086 64.273 2.71985C58.3249 0.618776 51.9404 -0.294781 45.3841 0.0833508C21.0274 1.50629 1.22291 21.7368 0.299976 46.1383C-0.0583632 55.5916 2.3323 64.8271 7.21364 72.8481C16.6242 88.3109 21.5972 105.192 21.5972 121.671ZM57.8645 106.666H42.9309V81.066C42.9309 79.8878 41.9767 78.9326 40.7975 78.9326H26.6317L33.2985 57.5989H63.3813L58.4895 62.4907L61.5062 65.5074L70.0397 56.9739C70.8741 56.1395 70.8741 54.7916 70.0397 53.9572L61.5062 45.4237L58.4895 48.4404L63.3813 53.3322H34.6318L36.2641 48.1092C36.46 47.7935 36.5735 47.4269 36.5798 47.0383C36.7287 40.1694 38.4829 33.6214 41.5694 27.7317H53.5978V23.465H44.1195C45.9883 20.7212 48.1487 18.1462 50.6581 15.8315C54.6947 12.1065 59.3124 9.2783 64.2667 7.32826C69.2199 9.2783 73.8346 12.1065 77.8711 15.8315C80.3795 18.1462 82.5389 20.7212 84.4098 23.465H65.15L70.0418 18.5732L67.0251 15.5565L58.4916 24.09C57.6572 24.9244 57.6572 26.2723 58.4916 27.1067L67.0251 35.6402L70.0418 32.6235L65.148 27.7317H86.9588C90.0463 33.6214 91.7995 40.1694 91.9495 47.0383C91.9578 47.4269 92.0703 47.7935 92.2651 48.1092L93.8974 53.3322H77.0648V57.5989H95.2308L101.898 78.9326H87.7317C86.5515 78.9326 85.5983 79.8878 85.5983 81.066V106.666H57.8645ZM30.1307 53.3322C23.0712 53.3322 17.3305 47.5914 17.3305 40.5319C17.3305 33.4725 23.0712 27.7317 30.1307 27.7317H36.7631C34.0735 33.511 32.5453 39.8215 32.3276 46.3966L30.163 53.3322H30.1307ZM98.3662 53.3322L96.1985 46.3966C95.9808 39.8215 94.4537 33.511 91.764 27.7317H98.3985C105.458 27.7317 111.199 33.4725 111.199 40.5319C111.199 47.5914 105.458 53.3322 98.3985 53.3322H98.3662ZM82.8951 4.34384C105.082 5.64074 123.122 24.0713 123.967 46.3008C124.291 54.9155 122.115 63.3271 117.669 70.6314C107.854 86.7598 102.665 104.409 102.665 121.671V123.733H72.7981V110.933H87.7317C88.9109 110.933 89.8651 109.977 89.8651 108.8V83.1993H104.799C105.477 83.1993 106.114 82.8774 106.518 82.3285C106.922 81.7806 107.038 81.0764 106.834 80.4285L99.6808 57.5343C108.491 56.8739 115.465 49.5092 115.465 40.5319C115.465 31.1214 107.809 23.465 98.3985 23.465H89.5005C87.1536 19.5306 84.2368 15.9003 80.7639 12.6961C77.5982 9.77518 74.121 7.34076 70.4147 5.40427C74.4471 4.47822 78.6347 4.09384 82.8951 4.34384ZM4.56255 46.3008C5.40527 24.0692 23.4441 5.64074 45.6341 4.34384C49.9008 4.09592 54.0905 4.4803 58.1208 5.40636C54.4103 7.34493 50.929 9.77726 47.7654 12.6981C44.2914 15.9024 41.3757 19.5326 39.0288 23.4671H30.1307C20.7201 23.4671 13.0637 31.1235 13.0637 40.534C13.0637 49.5113 20.0378 56.876 28.8484 57.5374L21.6951 80.4326C21.4899 81.0805 21.6097 81.7847 22.0108 82.3326C22.4118 82.8816 23.0524 83.1993 23.7306 83.1993H38.6642V108.8C38.6642 109.977 39.6173 110.933 40.7975 110.933H55.7311V123.733H25.864V121.671C25.864 104.409 20.6753 86.7598 10.8595 70.6293C6.41362 63.3271 4.23546 54.9124 4.56255 46.3008Z" fill="#0055F9"/>
<path d="M62.1312 74.665H66.398V78.9318H62.1312V74.665Z" fill="#0055F9"/>
<path d="M62.1312 83.1992H66.398V87.466H62.1312V83.1992Z" fill="#0055F9"/>
<path d="M70.6647 83.1992H74.9314V87.466H70.6647V83.1992Z" fill="#0055F9"/>
<path d="M53.5977 83.1992H57.8645V87.466H53.5977V83.1992Z" fill="#0055F9"/>
</g>
<defs>
<clipPath id="clip0">
<rect width="128" height="128" fill="white"/>
</clipPath>
</defs>
</svg>
