<svg width="15" height="14" viewBox="0 0 15 14" fill="none" xmlns="http://www.w3.org/2000/svg">
<path d="M0.89399 1.63826L2.46038 0.0660328C2.55338 -0.0270298 2.67034 -0.0149376 2.74525 0.0600349L5.93717 3.25496C6.05203 3.36992 6.05203 3.55633 5.93717 3.67132L4.19236 5.41774C3.96077 5.64956 3.96077 6.02542 4.19236 6.25728L7.96059 10.029C8.15768 10.2263 8.47724 10.2263 8.67433 10.029L10.5253 8.17628C10.6402 8.06132 10.8264 8.06132 10.9413 8.17628L14.0866 11.3245C14.2015 11.4395 14.2015 11.6259 14.0866 11.7409C12.0768 14.098 9.83313 14.8493 7.56025 12.8398L1.10449 6.378C-0.703069 4.4817 0.06552 2.41259 0.89399 1.63826Z" fill="#0055F9"/>
</svg>
