<svg width="151" height="64" viewBox="0 0 151 64" fill="none" xmlns="http://www.w3.org/2000/svg">
<path d="M0.601135 44.1133H150.224V64.0006H0.601135V44.1133Z" fill="#FF1B1B"/>
<path d="M17.8943 55.96H16.8494L15.8823 58.8547H14.4631L15.4304 55.96H13.9266L14.1525 54.668H15.854L16.4823 52.8042H14.9856L15.2186 51.5122H16.913L17.8943 48.5752H19.3064L18.325 51.5122H19.3769L20.3583 48.5752H21.7774L20.7961 51.5122H22.3563L22.1303 52.8042H20.3725L19.7441 54.668H21.2903L21.0644 55.96H19.3134L18.3533 58.8547H16.9342L17.8943 55.96ZM17.2731 54.668H18.3179L18.9533 52.8042H17.9014L17.2731 54.668Z" fill="white"/>
<path d="M26.1754 58.9962C25.493 58.9915 24.8835 58.8314 24.3469 58.5161C23.8151 58.1961 23.4126 57.7536 23.1396 57.1888C22.8666 56.6193 22.7584 55.9933 22.8149 55.3108L22.836 55.1132C22.9631 53.8565 23.3985 52.8634 24.1422 52.1338C24.8905 51.3996 25.806 51.0466 26.8885 51.0748C27.5428 51.0843 28.1029 51.2513 28.5688 51.5761C29.0348 51.8961 29.376 52.3409 29.5925 52.9104C29.809 53.4752 29.8796 54.1106 29.8043 54.8166L29.6702 55.7839H25.1235C25.1329 56.1839 25.2459 56.5087 25.4624 56.7581C25.6789 57.0076 25.9942 57.1394 26.4084 57.1535C27.0815 57.1724 27.6863 56.9135 28.2229 56.3769L29.1971 57.669C28.91 58.0784 28.5076 58.4008 27.9899 58.6361C27.4769 58.8668 26.9144 58.9868 26.3025 58.9962H26.1754ZM26.7403 52.9034C26.4108 52.8939 26.1237 52.9975 25.8789 53.214C25.6389 53.4305 25.4294 53.793 25.2506 54.3013H27.5734L27.6157 54.0966C27.6439 53.9318 27.6487 53.7765 27.6298 53.6306C27.5498 53.1599 27.2533 52.9175 26.7403 52.9034Z" fill="white"/>
<path d="M33.7294 55.9965L35.6427 51.2168H38.149L34.5343 58.8558H32.1692L30.9478 51.2168H33.3341L33.7294 55.9965Z" fill="white"/>
<path d="M41.58 58.9962C40.8975 58.9915 40.288 58.8314 39.7514 58.5161C39.2196 58.1961 38.8172 57.7536 38.5441 57.1888C38.2712 56.6193 38.1629 55.9933 38.2194 55.3108L38.2406 55.1132C38.3677 53.8565 38.803 52.8634 39.5467 52.1338C40.2951 51.3996 41.2105 51.0466 42.2931 51.0748C42.9473 51.0843 43.5074 51.2513 43.9733 51.5761C44.4393 51.8961 44.7806 52.3409 44.9971 52.9104C45.2136 53.4752 45.2842 54.1106 45.2089 54.8166L45.0747 55.7839H40.528C40.5375 56.1839 40.6504 56.5087 40.8669 56.7581C41.0835 57.0076 41.3988 57.1394 41.813 57.1535C42.486 57.1724 43.0908 56.9135 43.6274 56.3769L44.6017 57.669C44.3146 58.0784 43.9122 58.4008 43.3945 58.6361C42.8814 58.8668 42.319 58.9868 41.7071 58.9962H41.58ZM42.1448 52.9034C41.8153 52.8939 41.5283 52.9975 41.2835 53.214C41.0435 53.4305 40.834 53.793 40.6551 54.3013H42.9779L43.0203 54.0966C43.0485 53.9318 43.0532 53.7765 43.0344 53.6306C42.9544 53.1599 42.6578 52.9175 42.1448 52.9034Z" fill="white"/>
<path d="M51.2943 53.3694C51.0449 53.3318 50.8048 53.3083 50.5742 53.2989C49.8776 53.28 49.3457 53.52 48.9786 54.019L48.1173 58.8551H45.7946L47.1218 51.2161L49.2893 51.209L49.1128 52.2116C49.6117 51.4397 50.2 51.0537 50.8778 51.0537C51.0707 51.0537 51.3108 51.0867 51.5979 51.1526L51.2943 53.3694Z" fill="white"/>
<path d="M55.0994 55.4952L57.0762 51.2168H59.6391L55.1629 59.9995C54.8288 60.6914 54.4428 61.1903 54.0051 61.4963C53.5721 61.8069 53.0544 61.9622 52.4519 61.9622C52.1836 61.9622 51.8424 61.9104 51.4282 61.8069L51.6047 60.1054H51.873C52.1601 60.1054 52.4119 60.0584 52.6284 59.9642C52.8449 59.8748 53.0261 59.6983 53.172 59.4347L53.5039 58.7993L52.2824 51.2168H54.6829L55.0994 55.4952Z" fill="white"/>
<path d="M59.5046 55.0214C59.6506 53.8165 60.0177 52.8516 60.606 52.1268C61.1944 51.4019 61.9615 51.0513 62.9076 51.0748C63.5571 51.0937 64.096 51.3666 64.5243 51.8938L65.2657 48.0107H67.5955L65.7175 58.855H63.6489L63.7477 58.029C63.1782 58.6973 62.5452 59.0221 61.8485 59.0032C61.1143 58.9938 60.5378 58.7232 60.1188 58.1914C59.7047 57.6548 59.4834 56.937 59.4552 56.0381C59.4458 55.7415 59.4552 55.4521 59.4834 55.1696L59.5046 55.0214ZM61.8204 55.1767C61.7827 55.478 61.7662 55.7415 61.7709 55.9674C61.7709 56.7488 62.0345 57.1465 62.5616 57.1606C63.0182 57.1747 63.4253 56.9559 63.783 56.504L64.3055 53.5741C64.1501 53.1411 63.8395 52.9175 63.3736 52.9034C62.9405 52.894 62.5899 53.0822 62.3216 53.4682C62.058 53.8494 61.8909 54.419 61.8204 55.1767Z" fill="white"/>
<path d="M71.6828 58.8548C71.617 58.6712 71.584 58.4406 71.584 58.1629C71.0615 58.7371 70.4379 59.0148 69.7131 58.996C69.0494 58.9866 68.4987 58.7654 68.061 58.3324C67.6233 57.8993 67.4186 57.3745 67.4468 56.7579C67.4703 55.9296 67.8163 55.2942 68.4846 54.8518C69.153 54.4046 70.0661 54.181 71.2239 54.181L72.0005 54.1952L72.0852 53.7645L72.1135 53.3903C72.0947 52.962 71.8805 52.7408 71.471 52.7267C70.9627 52.7173 70.6497 52.9973 70.532 53.5669L68.2022 53.5738C68.2258 53.0609 68.3928 52.6161 68.7035 52.2396C69.0141 51.8583 69.4354 51.5664 69.9672 51.3641C70.5038 51.157 71.0733 51.0605 71.6757 51.0746C72.2547 51.0887 72.7607 51.2111 73.1937 51.4418C73.6314 51.6677 73.9585 51.9853 74.1751 52.3948C74.3916 52.7997 74.4739 53.2679 74.4222 53.7998L73.8503 57.3934L73.8149 57.8311C73.7962 58.1794 73.8409 58.4759 73.9491 58.7207L73.942 58.8548H71.6828ZM70.3555 57.3157C70.8309 57.3346 71.2475 57.1251 71.6052 56.6874L71.8381 55.4589L71.2381 55.4518C70.8662 55.4613 70.5462 55.5718 70.2779 55.7837C70.0096 55.9908 69.8519 56.2755 69.8048 56.6379C69.7813 56.8309 69.8166 56.991 69.9108 57.118C70.0096 57.2404 70.1579 57.3063 70.3555 57.3157Z" fill="white"/>
<path d="M78.5733 55.4952L80.5498 51.2168H83.1131L78.6365 59.9995C78.3028 60.6914 77.9165 61.1903 77.4792 61.4963C77.0455 61.8069 76.5285 61.9622 75.9258 61.9622C75.6575 61.9622 75.3164 61.9104 74.902 61.8069L75.0785 60.1054H75.3464C75.6342 60.1054 75.886 60.0584 76.1024 59.9642C76.3188 59.8748 76.5 59.6983 76.6457 59.4347L76.9779 58.7993L75.756 51.2168H78.157L78.5733 55.4952Z" fill="white"/>
<path d="M90.2434 55.0428C90.1442 55.843 89.9352 56.556 89.6151 57.182C89.295 57.8034 88.8974 58.267 88.4217 58.5729C87.9513 58.8741 87.4237 59.0176 86.8406 59.0035C86.1717 58.9847 85.6307 58.7212 85.2166 58.2128L84.5245 61.7922H82.2016L84.0375 51.2163L86.1838 51.2092L86.0635 51.9364C86.5768 51.3434 87.1818 51.0563 87.8784 51.0751C88.6216 51.0846 89.201 51.3504 89.6151 51.8729C90.0337 52.3953 90.2576 53.1084 90.2854 54.0121C90.2952 54.3039 90.2809 54.6475 90.2434 55.0428ZM87.9844 54.0968C87.9603 53.3202 87.6973 52.9248 87.193 52.9107C86.7038 52.8825 86.2965 53.0825 85.9719 53.5108L85.4285 56.5396C85.5743 56.9491 85.899 57.1585 86.4025 57.1679C87.2261 57.182 87.7326 56.4737 87.9205 55.0428C87.9626 54.591 87.9844 54.2756 87.9844 54.0968Z" fill="white"/>
<path d="M95.4038 51.0749C96.0862 51.0844 96.6768 51.2562 97.1758 51.5903C97.6748 51.9198 98.0393 52.381 98.27 52.9741C98.5052 53.5672 98.5901 54.2261 98.524 54.9509L98.5105 55.1062C98.3782 56.2782 97.9431 57.2243 97.2044 57.9443C96.4649 58.6645 95.5518 59.0151 94.4652 58.9963C93.7873 58.9869 93.2012 58.8198 92.7067 58.495C92.2129 58.1656 91.8455 57.7067 91.6057 57.1184C91.3705 56.53 91.2856 55.8758 91.351 55.1557C91.469 53.9037 91.8973 52.9059 92.636 52.1622C93.38 51.4185 94.3021 51.0561 95.4038 51.0749ZM93.6739 55.1557L93.6528 55.5722C93.5867 56.6218 93.9068 57.156 94.6132 57.1748C95.5263 57.2031 96.0553 56.4618 96.2019 54.9509L96.2297 54.3084C96.2395 53.8848 96.159 53.5483 95.99 53.2989C95.8254 53.0447 95.5804 52.9129 95.2558 52.9035C94.8274 52.8894 94.4742 53.0659 94.1969 53.433C93.9233 53.7954 93.7498 54.3696 93.6739 55.1557Z" fill="white"/>
<path d="M104.701 53.3694C104.452 53.3318 104.212 53.3083 103.981 53.2989C103.285 53.28 102.753 53.52 102.386 54.019L101.525 58.8551H99.2019L100.529 51.2161L102.696 51.209L102.52 52.2116C103.019 51.4397 103.607 51.0537 104.285 51.0537C104.478 51.0537 104.718 51.0867 105.005 51.1526L104.701 53.3694Z" fill="white"/>
<path d="M110.385 53.3694C110.135 53.3318 109.895 53.3083 109.665 53.2989C108.968 53.28 108.436 53.52 108.069 54.019L107.208 58.8551H104.885L106.213 51.2161L108.38 51.209L108.203 52.2116C108.702 51.4397 109.291 51.0537 109.968 51.0537C110.161 51.0537 110.401 51.0867 110.689 51.1526L110.385 53.3694Z" fill="white"/>
<path d="M114.649 58.8548C114.583 58.6712 114.55 58.4406 114.55 58.1629C114.027 58.7371 113.404 59.0148 112.679 58.996C112.016 58.9866 111.465 58.7654 111.027 58.3324C110.589 57.8993 110.384 57.3745 110.413 56.7579C110.436 55.9296 110.782 55.2942 111.451 54.8518C112.119 54.4046 113.032 54.181 114.19 54.181L114.967 54.1952L115.051 53.7645L115.079 53.3903C115.061 52.962 114.847 52.7408 114.437 52.7267C113.929 52.7173 113.616 52.9973 113.498 53.5669L111.168 53.5738C111.192 53.0609 111.359 52.6161 111.669 52.2396C111.98 51.8583 112.401 51.5664 112.933 51.3641C113.47 51.157 114.039 51.0605 114.641 51.0746C115.221 51.0887 115.727 51.2111 116.159 51.4418C116.597 51.6677 116.924 51.9853 117.141 52.3948C117.357 52.7997 117.44 53.2679 117.388 53.7998L116.816 57.3934L116.781 57.8311C116.762 58.1794 116.806 58.4759 116.915 58.7207L116.908 58.8548H114.649ZM113.322 57.3157C113.797 57.3346 114.213 57.1251 114.571 56.6874L114.804 55.4589L114.204 55.4518C113.832 55.4613 113.512 55.5718 113.244 55.7837C112.975 55.9908 112.817 56.2755 112.771 56.6379C112.747 56.8309 112.782 56.991 112.877 57.118C112.975 57.2404 113.124 57.3063 113.322 57.3157Z" fill="white"/>
<path d="M118.524 55.0214C118.67 53.8165 119.038 52.8516 119.626 52.1268C120.214 51.4019 120.981 51.0513 121.927 51.0748C122.577 51.0937 123.116 51.3666 123.544 51.8938L124.285 48.0107H126.615L124.737 58.855H122.669L122.767 58.029C122.198 58.6973 121.565 59.0221 120.868 59.0032C120.134 58.9938 119.558 58.7232 119.138 58.1914C118.724 57.6548 118.503 56.937 118.475 56.0381C118.466 55.7415 118.475 55.4521 118.503 55.1696L118.524 55.0214ZM120.84 55.1767C120.802 55.478 120.786 55.7415 120.791 55.9674C120.791 56.7488 121.054 57.1465 121.581 57.1606C122.038 57.1747 122.445 56.9559 122.803 56.504L123.325 53.5741C123.17 53.1411 122.859 52.9175 122.393 52.9034C121.96 52.894 121.61 53.0822 121.342 53.4682C121.078 53.8494 120.91 54.419 120.84 55.1767Z" fill="white"/>
<path d="M130.703 58.8548C130.637 58.6712 130.604 58.4406 130.604 58.1629C130.082 58.7371 129.458 59.0148 128.733 58.996C128.069 58.9866 127.519 58.7654 127.081 58.3324C126.643 57.8993 126.438 57.3745 126.467 56.7579C126.49 55.9296 126.836 55.2942 127.505 54.8518C128.173 54.4046 129.086 54.181 130.244 54.181L131.02 54.1952L131.105 53.7645L131.134 53.3903C131.115 52.962 130.901 52.7408 130.491 52.7267C129.982 52.7173 129.67 52.9973 129.552 53.5669L127.222 53.5738C127.245 53.0609 127.413 52.6161 127.723 52.2396C128.034 51.8583 128.455 51.5664 128.987 51.3641C129.524 51.157 130.093 51.0605 130.696 51.0746C131.274 51.0887 131.781 51.2111 132.214 51.4418C132.651 51.6677 132.979 51.9853 133.195 52.3948C133.411 52.7997 133.494 53.2679 133.442 53.7998L132.87 57.3934L132.835 57.8311C132.816 58.1794 132.861 58.4759 132.969 58.7207L132.962 58.8548H130.703ZM129.375 57.3157C129.851 57.3346 130.267 57.1251 130.625 56.6874L130.858 55.4589L130.258 55.4518C129.886 55.4613 129.566 55.5718 129.298 55.7837C129.029 55.9908 128.872 56.2755 128.825 56.6379C128.801 56.8309 128.836 56.991 128.93 57.118C129.029 57.2404 129.178 57.3063 129.375 57.3157Z" fill="white"/>
<path fill-rule="evenodd" clip-rule="evenodd" d="M28.7312 38.2161C28.5877 38.8407 28.4447 39.4657 28.3016 40.0907C24.0387 40.443 19.9436 40.5186 15.6685 40.4808C13.6049 40.3824 11.5418 40.2845 9.47853 40.1865C7.68772 40.1032 5.89683 40.0194 4.10555 39.9361C2.84393 39.8768 1.58193 39.8175 0.319442 39.7582C-0.168542 39.0568 -0.0916839 38.7393 0.510564 38.232C2.08835 38.1959 3.66571 38.1598 5.24264 38.1237C7.66751 38.0348 10.0915 37.9464 12.516 37.8575C13.8159 37.823 15.1161 37.7882 16.416 37.7539C18.8289 37.7582 21.2413 37.7629 23.6537 37.7672C24.4106 37.8097 25.1674 37.8523 25.9243 37.8947C26.8599 38.0017 27.7956 38.1091 28.7312 38.2161Z" fill="black"/>
<path fill-rule="evenodd" clip-rule="evenodd" d="M37.4508 38.1367L37.5899 38.7617L37.4417 39.5367L33.656 39.6741L29.2642 39.8304L29.6228 38.2892L37.4508 38.1367Z" fill="#0055F9"/>
<path fill-rule="evenodd" clip-rule="evenodd" d="M37.2723 39.3316C38.9931 41.5864 42.7393 39.9425 44.336 39.0803C44.7029 38.8535 45.0701 38.6267 45.437 38.3994C42.9924 38.9575 41.1885 36.8694 38.5609 37.5532C38.045 37.7576 37.6924 37.9028 37.2835 38.2126C37.2796 38.5859 37.2757 38.9587 37.2723 39.3316Z" fill="#0055F9"/>
<path fill-rule="evenodd" clip-rule="evenodd" d="M44.3211 38.7169C43.05 38.6826 41.9757 38.1486 40.7845 37.8474C40.3252 37.7388 40.0486 37.71 39.567 37.7195C39.4678 37.7358 39.3682 37.7521 39.269 37.7688C39.1319 37.8015 38.9949 37.8341 38.8578 37.8668C40.2767 38.1713 42.1547 39.0631 43.5821 38.9901C43.9864 38.9347 44.0255 38.9282 44.3211 38.7169Z" fill="white"/>
<path d="M77.1072 24.6483V29.3739H65.715C60.3799 29.3739 56.6095 28.416 54.405 26.5001C52.201 24.5847 51.0988 21.5834 51.0988 17.4965V0H58.879V16.1344V17.7521C58.879 19.9373 59.4069 21.6332 60.4628 22.8394C61.5187 24.0457 63.9178 24.6483 67.6597 24.6483H77.1072ZM113.231 0V17.8371V19.3273C113.231 22.1938 112.193 24.6415 110.119 26.6707C108.044 28.7 103.635 29.7146 96.8918 29.7146C91.0016 29.7146 86.7774 28.9057 84.2208 27.288C81.665 25.6703 80.386 22.818 80.386 18.7311V0H88.1106V17.6671V19.1143C88.1106 20.7887 88.6667 22.2148 89.7781 23.3927C90.8904 24.5706 93.2613 25.1595 96.8918 25.1595C100.153 25.1595 102.393 24.6058 103.616 23.4993C104.839 22.3922 105.45 20.448 105.45 17.6671V0H113.231ZM137.294 14.304L150.299 29.3739H140.962L132.904 19.1568L124.345 29.3739H115.064L128.236 14.6871L115.509 0H124.679L132.571 9.32328L140.351 0H149.409L137.294 14.304Z" fill="black"/>
<path d="M37.9496 0.235352L40.2146 1.06398L40.0669 3.02709L39.7718 4.72814L39.1807 7.25829L38.4423 10.181L38.0483 11.6209C37.8838 12.1441 37.6621 13.0892 37.3833 14.456C37.1042 15.8229 36.8498 17.1172 36.6205 18.3384C36.193 21.2758 35.98 23.4425 35.98 24.8382C35.98 26.0598 36.1609 26.6848 36.5213 26.7141H36.9156L40.362 24.9258L40.6579 25.2746L36.0294 31.3383L30.5143 32.3413L30.4653 31.3817L30.3669 29.8112C30.3669 28.0083 30.6127 25.6818 31.1053 22.8317C31.3352 21.494 31.5977 20.207 31.8931 18.9712C32.1887 17.7353 32.5006 16.6082 32.8288 15.5905L34.6999 10.4864C35.8816 7.49109 36.5711 5.54258 36.7679 4.64093L36.9645 3.4197L36.9156 3.07089L33.7149 5.42619L30.4158 8.30558L25.9845 12.4934L20.8224 17.8586H31.2527L30.7608 18.9059C30.3669 18.9639 30.071 19.0365 29.8742 19.1237L27.6095 19.9089C26.3617 20.3454 25.0815 20.6941 23.7688 20.9557C22.4556 21.2178 21.093 21.3484 19.6815 21.3484H17.8602C17.794 21.3484 17.745 21.363 17.712 21.3922C17.4169 21.5665 17.1209 21.7994 16.8258 22.0902L14.8068 24.3149C14.0195 25.3038 12.7883 26.6268 11.1139 28.2845C9.43989 29.9422 8.06104 31.2073 6.97808 32.0797C6.12454 32.8066 5.17218 33.49 4.1219 34.13C3.20263 34.6245 2.54627 34.9007 2.15237 34.9586C2.054 34.8427 1.98827 34.7409 1.95562 34.6532C1.75845 34.3624 1.59433 34.0428 1.46289 33.6936L0.822818 30.7709L0.57666 28.0229C0.57666 27.5577 0.716278 27.223 0.995068 27.0195C1.27428 26.8158 1.7911 26.7141 2.54627 26.7141C3.92517 26.7141 4.61413 26.9615 4.61413 27.4559C4.61413 27.9791 4.54884 28.3352 4.41739 28.5246C4.28595 28.7136 3.97412 28.8224 3.48183 28.8515C3.18629 28.91 3.03893 29.0405 3.03893 29.2442C3.03893 29.5349 3.18629 29.855 3.48183 30.2038L3.72799 30.291C3.92516 30.291 4.237 30.1458 4.66355 29.855L8.06097 27.1939C9.86643 25.7691 12.4434 23.3261 15.7914 19.8655L17.8108 17.8586L19.7803 15.8083L25.689 9.96323L28.8403 7.17108L32.3365 4.24833L35.0934 2.19846L37.9496 0.235352Z" fill="#0055F9"/>
<path d="M52.9507 36.6226V40.2126H56.2977V41.7917H52.6672L51.1017 40.8875V35.9478L52.6672 35.0436H56.2977V36.6226H52.9507Z" fill="black"/>
<path d="M59.8965 41.7917H58.0475V31.9395H59.8965V35.5295L60.8547 34.9761H62.6227L64.1883 35.8804V41.7917H62.3393V36.5552H59.8965V41.7917Z" fill="black"/>
<path d="M67.7981 39.1329V40.3071H69.7011V39.1329H67.7981ZM67.5147 41.8592L65.9491 40.9549V38.6201L67.5147 37.7158H69.7011V36.6226H66.6239V35.0436H69.9845L71.5501 35.9478V41.8592H70.6593L69.7011 41.3058L68.7429 41.8592H67.5147Z" fill="black"/>
<path d="M73.0336 36.6226V35.0436H74.2753V33.9099L76.1242 32.8437V35.0436H77.6088V36.6226H76.1242V40.2126H77.6088V41.7917H75.8408L74.2753 40.8875V36.6226H73.0336Z" fill="black"/>
<path d="M85.6725 34.9761H87.4405L89.0061 35.8804V40.9549L87.4405 41.8592H85.6725L84.7143 41.3058L83.7561 41.8592H82.8653V31.9395H84.7143V35.5295L85.6725 34.9761ZM84.7143 36.5552V40.2801H87.1571V36.5552H84.7143Z" fill="black"/>
<path d="M97.0427 40.9549L95.4771 41.8592H92.6024L91.0369 40.9549V35.8804L92.6024 34.9761H95.4771L97.0427 35.8804V40.9549ZM92.8858 36.5552V40.2801H95.1937V36.5552H92.8858Z" fill="black"/>
<path d="M98.5236 36.6226V35.0436H99.7652V33.9099L101.614 32.8437V35.0436H103.099V36.6226H101.614V40.2126H103.099V41.7917H101.331L99.7652 40.8875V36.6226H98.5236Z" fill="black"/>
<path d="M109.921 34.9761H111.689L112.647 35.5295V31.9395H114.496V41.8592H112.971L112.647 41.3058L111.689 41.8592H109.921L108.355 40.9549V35.8804L109.921 34.9761ZM112.647 40.2801V36.5552H110.204V40.2801H112.647Z" fill="black"/>
<path d="M122.128 40.2126V41.7917H118.092L116.527 40.8875V35.8804L118.092 34.9761H120.562L122.128 35.8804V39.106H118.376V40.2126H122.128ZM118.376 36.5552V37.7158H120.279V36.5552H118.376Z" fill="black"/>
<path d="M125.197 35.0436L126.749 39.4704H126.776L128.342 35.0436H130.191L127.694 41.7917H125.845L123.348 35.0436H125.197Z" fill="black"/>
</svg>
